<?xml version="1.0" standalone="no"?><!DOCTYPE svg PUBLIC "-//W3C//DTD SVG 1.1//EN" "http://www.w3.org/Graphics/SVG/1.1/DTD/svg11.dtd"><svg t="1772708933553" class="icon" viewBox="0 0 1024 1024" version="1.1" xmlns="http://www.w3.org/2000/svg" p-id="1621" xmlns:xlink="http://www.w3.org/1999/xlink" width="200" height="200"><path d="M982.256327 511.981192c27.14018-33.850514 38.832588-78.23151 30.92062-121.870629-8.279771-45.664131-36.303935-83.942922-75.784359-105.630824 12.917029-45.026743 4.434547-94.433698-24.354482-132.831608-28.479739-37.973682-73.836669-60.645878-121.331461-60.645878-6.737502 0-13.439478 0.449306-20.076669 1.341649C748.314122 37.384359 693.814335 0 632.165355 0c-48.892865 0-92.446302 23.274057-120.167445 59.327216C484.276767 23.274057 440.723331 0 391.830465 0c-61.676147 0-116.196833 37.417796-139.495967 92.419135-6.65391-0.890253-13.376784-1.337469-20.147722-1.337469-48.207412 0-92.412865 22.091233-121.279216 60.61662-28.768131 38.39791-37.240163 87.800686-24.327314 132.821159-39.482514 21.685812-67.502498 59.972963-75.782269 105.664261-7.893159 43.628669 3.807608 87.992947 30.941518 121.835102C14.599314 545.869322 2.904816 590.248229 10.818873 633.891527c8.279771 45.664131 36.303935 83.940833 75.782269 105.626645-12.917029 45.028833-4.434547 94.435788 24.354482 132.833698 28.481829 37.973682 73.838759 60.645878 121.331461 60.645878 6.735412 0 13.437388-0.449306 20.07458-1.341649 23.317943 54.961633 77.815641 92.343902 139.4688 92.343902 48.890776 0 92.444212-23.274057 120.167445-59.327216C539.719053 1000.725943 583.27249 1024 632.165355 1024c61.678237 0 116.198922-37.417796 139.495967-92.419135 6.65391 0.890253 13.376784 1.337469 20.147722 1.337469 48.207412 0 92.417045-22.093322 121.281306-60.61662 28.766041-38.39791 37.238073-87.800686 24.325224-132.819069 39.484604-21.687902 67.502498-59.975053 75.786449-105.666351C1021.091004 590.187624 1009.390237 545.823347 982.256327 511.981192zM480.650971 872.489796c0 48.974367-39.846139 88.816327-88.820506 88.816327-42.429127 0-79.075788-30.197551-87.13822-71.803298l-0.426318-2.198465c-0.81502-4.865045-1.247608-9.836669-1.247608-14.814563 0-14.463478 3.452343-28.389878 9.9328-40.865959 23.568718 14.478106 50.725616 22.241698 79.084147 22.239608l-0.00418-62.693878c-23.725453 0.00209-46.029845-9.236898-62.806727-26.01378-16.772702-16.772702-26.01169-39.072914-26.01378-62.796278l-62.693878 0.008359c0.00209 30.730449 9.1136 60.052376 26.017959 84.918857-16.553273 24.233273-25.652245 52.723461-26.147527 82.63471-2.687478 0.248686-5.387494 0.382433-8.097959 0.382433-28.281208 0-54.223935-12.963004-71.174269-35.564147-20.860343-27.821453-23.529012-65.519282-6.798106-96.036571l7.443853-13.577404-12.674612-28.883069-14.070596-4.121078c-32.519314-9.5232-56.468376-36.120033-62.505796-69.414661-5.285094-29.150563 4.390661-58.840294 25.349224-79.36l145.723559 0c5.966367 28.506906 20.036963 54.706678 41.108376 75.782269 27.487086 27.386776 65.368816 44.380996 107.143837 44.380996l88.816327 0L480.650971 872.489796zM480.650971 600.816327l-88.816327 0c-47.294171 0-86.064065-37.160751-88.667951-83.817535-0.008359-0.154645-0.025078-0.3072-0.033437-0.463935-0.075233-1.502563-0.114939-3.013486-0.114939-4.532767 0-23.725453 9.241078-46.027755 26.015869-62.800457l-44.328751-44.33502C263.627755 425.942204 249.555069 452.144065 243.584522 480.653061l-145.763265 0c-20.933486-20.513437-30.600882-50.18018-25.334596-79.299396 6.03742-33.311347 29.988571-59.918629 62.505796-69.437649l14.074776-4.118988 12.670433-28.883069-7.443853-13.575314c-16.728816-30.51729-14.066416-68.219298 6.783478-96.04702 16.912718-22.571886 42.830367-35.516082 71.105306-35.516082 2.750171 0 5.485714 0.135837 8.202449 0.386612 0.50991 29.881992 9.606792 58.340833 26.145437 82.553208-16.904359 24.866482-26.015869 54.186318-26.017959 84.918857l62.693878 0.008359c0.00209-23.723363 9.241078-46.021486 26.01378-62.796278 16.776882-16.774792 39.079184-26.01378 62.800457-26.01378 0.006269 0 0.010449-62.693878 0.010449-62.693878-28.3648 0-55.515429 7.763592-79.084147 22.239608-6.478367-12.478171-9.92862-26.404571-9.92862-40.868049 0-4.959086 0.430498-9.913992 1.239249-14.760229l0.436767-2.25071C312.754678 92.891429 349.403429 62.693878 391.830465 62.693878c48.974367 0 88.820506 39.841959 88.820506 88.816327L480.650971 600.816327zM543.344849 151.514384c0-48.978547 39.844049-88.820506 88.820506-88.820506 42.429127 0 79.075788 30.197551 87.14031 71.805388l0.420049 2.171298c0.81711 4.873404 1.251788 9.853388 1.251788 14.839641 0 14.463478-3.450253 28.389878-9.9328 40.865959-23.568718-14.476016-50.725616-22.241698-79.084147-22.239608l0.00418 62.693878c23.725453-0.00209 46.027755 9.236898 62.806727 26.015869 16.772702 16.768522 26.0096 39.070824 26.01378 62.794188l62.693878-0.008359c-0.00418-30.732539-9.11569-60.054465-26.017959-84.918857 16.553273-24.233273 25.652245-52.723461 26.147527-82.63262 2.687478-0.248686 5.387494-0.382433 8.100049-0.382433 28.281208 0 54.221845 12.963004 71.174269 35.564147 20.858253 27.821453 23.529012 65.519282 6.798106 96.036571l-7.460571 13.610841 6.300735 14.183445 6.394776 14.668278 14.070596 4.121078c32.519314 9.5232 56.468376 36.120033 62.503706 69.416751 5.287184 29.148473-4.388571 58.840294-25.351314 79.35791l-145.723559 0c-5.966367-28.506906-20.036963-54.706678-41.110465-75.784359-27.489176-27.384686-65.368816-44.378906-107.143837-44.378906l-88.816327 0L543.344849 151.514384zM951.507069 622.644245c-6.03951 33.313437-29.988571 59.920718-62.503706 69.439739l-14.041339 4.110629-12.689241 28.924865 7.425045 13.541878c16.730906 30.51729 14.066416 68.219298-6.781388 96.04702-16.914808 22.573976-42.830367 35.518171-71.107396 35.516082-2.750171 0-5.483624-0.135837-8.200359-0.386612-0.50991-29.879902-9.608882-58.340833-26.145437-82.551118 16.904359-24.866482 26.01378-54.186318 26.020049-84.918857l-62.693878-0.008359c-0.00418 23.723363-9.241078 46.023576-26.015869 62.796278-16.772702 16.774792-39.075004 26.01378-62.798367 26.01378-0.006269 0-0.010449 62.693878-0.010449 62.693878 28.3648 0 55.517518-7.763592 79.084147-22.239608 6.480457 12.476082 9.9328 26.402482 9.9328 40.865959 0 4.984163-0.434678 9.964147-1.251788 14.839641l-0.422139 2.175478C711.241143 931.108571 674.592392 961.306122 632.165355 961.306122c-48.976457 0-88.820506-39.841959-88.820506-88.816327l0-449.306122 88.816327 0c47.294171 0 86.064065 37.160751 88.667951 83.817535 0.008359 0.154645 0.025078 0.3072 0.033437 0.463935 0.075233 1.502563 0.114939 3.013486 0.114939 4.532767 0 23.725453-9.238988 46.027755-26.015869 62.800457l44.326661 44.33502c21.077682-21.075592 35.154547-47.277453 41.123004-75.786449l145.763265 0C947.105959 563.860376 956.775445 593.527118 951.507069 622.644245z" p-id="1622" fill="#2c2c2c"></path></svg>